<svg xmlns="http://www.w3.org/2000/svg" version="1.1" xmlns:xlink="http://www.w3.org/1999/xlink" xmlns:svgjs="http://svgjs.dev/svgjs" width="2000" height="1500" viewBox="0 0 2000 1500"><rect width="2000" height="1500" fill="#000000"></rect><g transform="matrix(0.75,0,0,0.75,249.090909090909,673.8761908311592)"><svg viewBox="0 0 396 40" data-background-color="#000000" preserveAspectRatio="xMidYMid meet" height="202" width="2000" xmlns="http://www.w3.org/2000/svg" xmlns:xlink="http://www.w3.org/1999/xlink"><g id="tight-bounds" transform="matrix(1,0,0,1,0.2400000000000091,0.09869549012299217)"><svg viewBox="0 0 395.52 39.802609019754" height="39.802609019754" width="395.52"><g><svg viewBox="0 0 395.52 39.802609019754" height="39.802609019754" width="395.52"><g><svg viewBox="0 0 395.52 39.802609019754" height="39.802609019754" width="395.52"><g id="textblocktransform"><svg viewBox="0 0 395.52 39.802609019754" height="39.802609019754" width="395.52" id="textblock"><g><svg viewBox="0 0 395.52 39.802609019754" height="39.802609019754" width="395.52"><g transform="matrix(1,0,0,1,0,0)"><svg width="395.52" viewBox="-0.15 -39 402.42999999999995 40.5" height="39.802609019754" data-palette-color="#ffffff"><path d="M22.85-39L22.85-39Q17-39 12.7-36.95 8.4-34.9 6.05-31.18 3.7-27.45 3.7-22.5L3.7-22.5 3.7-22Q3.05-20.1 2.43-18.15 1.8-16.2 1.15-14.28 0.5-12.35-0.15-10.4L-0.15-10.4 3.65-10.4Q3.7-10.4 3.7-10.4 3.7-10.4 3.7-10.35L3.7-10.35Q3.7-8.35 3.7-6.78 3.7-5.2 3.7-3.6 3.7-2 3.7 0L3.7 0 21.15 0Q21.15-2 21.15-3.6 21.15-5.2 21.15-6.78 21.15-8.35 21.15-10.35L21.15-10.35Q21.15-10.4 21.15-10.4 21.15-10.4 21.2-10.4L21.2-10.4 26.75-10.4 30.35-22 21.2-22Q21.2-22 21.18-22 21.15-22 21.15-22.03 21.15-22.05 21.15-22.05L21.15-22.05Q21.15-22.8 21.35-23.4 21.55-24 21.93-24.45 22.3-24.9 22.85-25.18 23.4-25.45 24.1-25.6 24.8-25.75 25.6-25.75L25.6-25.75Q27.35-25.75 28.85-24.83 30.35-23.9 30.35-22L30.35-22 34.85-36.35Q33.7-37.05 31.7-37.65 29.7-38.25 27.38-38.63 25.05-39 22.85-39ZM34.2-29.2L34.2-29.2 34.2-17.25Q36.45-18.7 39.45-19.45 42.45-20.2 45.4-20.2L45.4-20.2Q47.3-20.2 49.02-19.85 50.75-19.5 52.07-18.78 53.4-18.05 54.17-16.93 54.95-15.8 54.95-14.25L54.95-14.25Q54.95-14.2 54.95-14.13 54.95-14.05 54.95-13.98 54.95-13.9 54.95-13.8L54.95-13.8Q54.2-14.8 53.02-15.6 51.85-16.4 50.37-16.95 48.9-17.5 47.25-17.78 45.6-18.05 43.85-18.05L43.85-18.05Q41.15-18.05 39.05-17.53 36.95-17 35.42-16.05 33.9-15.1 32.9-13.85 31.9-12.6 31.4-11.2 30.9-9.8 30.9-8.35L30.9-8.35Q30.9-5.95 31.9-4.15 32.9-2.35 34.62-1.15 36.35 0.05 38.52 0.68 40.7 1.3 43.05 1.3L43.05 1.3Q45 1.3 46.97 0.93 48.95 0.55 50.75-0.35L50.75-0.35Q51.8-2.8 52.87-5.25 53.95-7.7 55-10.15L55-10.15Q54.4-8.7 53.25-8.35 52.1-8 51.2-8L51.2-8Q49.35-8 48.35-8.78 47.35-9.55 47.35-10.5L47.35-10.5Q47.35-11.45 48.32-12.2 49.3-12.95 51.2-12.95L51.2-12.95Q52.05-12.95 52.9-12.73 53.75-12.5 54.35-11.95 54.95-11.4 54.95-10.5L54.95-10.5Q54.95-7.9 54.95-5.28 54.95-2.65 54.95 0L54.95 0Q56.7 0 58.45 0 60.2 0 61.95 0 63.7 0 65.45 0 67.2 0 68.95 0 70.7 0 72.45 0L72.45 0Q72.45-4.85 72.45-9.7 72.45-14.55 72.45-19.4L72.45-19.4Q72.45-22.7 70.65-25.15 68.85-27.6 65.77-29.25 62.7-30.9 58.8-31.7 54.9-32.5 50.7-32.5L50.7-32.5Q46.4-32.5 42.12-31.68 37.85-30.85 34.2-29.2ZM73.9-21.1L73.9-21.1Q73.9-23.95 75.52-26.05 77.15-28.15 79.95-29.58 82.75-31 86.3-31.7 89.85-32.4 93.7-32.4L93.7-32.4Q98.45-32.4 102.52-31.55 106.6-30.7 109.9-29.3L109.9-29.3 109.9-17.7Q108.5-18.75 106.22-19.5 103.95-20.25 101.42-20.65 98.9-21.05 96.65-21.05L96.65-21.05Q95.15-21.05 93.92-20.88 92.7-20.7 91.97-20.35 91.25-20 91.25-19.45L91.25-19.45Q91.25-19.15 91.47-19 91.7-18.85 92.15-18.8 92.6-18.75 93.3-18.75L93.3-18.75Q94.45-18.75 95.35-18.75 96.25-18.75 97.35-18.75L97.35-18.75Q99.85-18.75 102.37-18.43 104.9-18.1 106.97-17.15 109.05-16.2 110.3-14.43 111.55-12.65 111.55-9.75L111.55-9.75Q111.55-6.7 109.87-4.58 108.2-2.45 105.32-1.13 102.45 0.2 98.87 0.8 95.3 1.4 91.45 1.4L91.45 1.4Q86.9 1.4 82.47 0.55 78.05-0.3 74.9-1.95L74.9-1.95 74.9-14.15Q76.15-12.8 78.47-11.93 80.8-11.05 83.52-10.63 86.25-10.2 88.65-10.2L88.65-10.2Q90.2-10.2 91.45-10.38 92.7-10.55 93.42-10.93 94.15-11.3 94.15-11.9L94.15-11.9Q94.15-12.15 94-12.25 93.85-12.35 93.52-12.4 93.2-12.45 92.65-12.45L92.65-12.45Q91.9-12.45 91.1-12.45 90.3-12.45 89.65-12.45L89.65-12.45Q87.9-12.45 85.77-12.58 83.65-12.7 81.55-13.13 79.45-13.55 77.72-14.48 76-15.4 74.95-17.03 73.9-18.65 73.9-21.1ZM130.34 0L113.04 0Q113.04-4.65 113.04-9.25 113.04-13.85 113.04-18.48 113.04-23.1 113.04-27.7L113.04-27.7Q113.04-30.2 113.04-32.63 113.04-35.05 113.04-37.5L113.04-37.5 130.34-37.5Q130.34-35.95 130.34-33.88 130.34-31.8 130.34-29.55 130.34-27.3 130.34-25.2L130.34-25.2Q130.34-22.4 130.34-20.4 130.34-18.4 130.34-18.15L130.34-18.15Q130.34-17.9 130.34-17.03 130.34-16.15 130.34-14.9L130.34-14.9Q130.34-13.25 130.34-11.2 130.34-9.15 130.34-7.03 130.34-4.9 130.34-3.05 130.34-1.2 130.34 0L130.34 0ZM152.94 0L135.64 0Q135.64-1.95 135.64-3.9 135.64-5.85 135.64-7.78 135.64-9.7 135.64-11.65 135.64-13.6 135.64-15.55L135.64-15.55Q135.64-17 134.92-17.65 134.19-18.3 133.19-18.38 132.19-18.45 131.37-18.2 130.54-17.95 130.34-17.65L130.34-17.65 134.34-30.5Q136.14-31.3 138.19-31.7 140.24-32.1 142.24-32.1L142.24-32.1Q145.04-32.1 147.47-31.2 149.89-30.3 151.42-28.35 152.94-26.4 152.94-23.15L152.94-23.15Q152.94-19.3 152.94-15.43 152.94-11.55 152.94-7.7 152.94-3.85 152.94 0L152.94 0ZM172.19 0L154.89 0Q154.89-2.3 154.89-4.58 154.89-6.85 154.89-9.13 154.89-11.4 154.89-13.65L154.89-13.65Q154.89-14.6 154.89-15.55 154.89-16.5 154.89-17.45L154.89-17.45Q157.79-17.45 160.67-17.45 163.54-17.45 166.44-17.45 169.34-17.45 172.19-17.45L172.19-17.45Q172.19-14.55 172.19-11.65 172.19-8.75 172.19-5.83 172.19-2.9 172.19 0L172.19 0ZM154.89-17.45L154.89-17.45Q154.89-20.85 154.89-24.25 154.89-27.65 154.89-31L154.89-31 172.19-31Q172.19-29.35 172.19-27.7 172.19-26.05 172.19-24.4 172.19-22.75 172.19-21.1L172.19-21.1Q172.19-21.1 172.17-21.08 172.14-21.05 172.14-21.05L172.14-21.05Q167.84-20.15 163.52-19.25 159.19-18.35 154.89-17.45ZM196.19 1.5L196.19 1.5Q193.09 1.5 190.19 1.05 187.29 0.6 184.79-0.33 182.29-1.25 180.24-2.65 178.19-4.05 176.74-5.93 175.29-7.8 174.49-10.18 173.69-12.55 173.69-15.45L173.69-15.45Q173.69-18.85 174.81-21.58 175.94-24.3 178.01-26.35 180.09-28.4 182.89-29.78 185.69-31.15 189.06-31.83 192.44-32.5 196.19-32.5L196.19-32.5Q200.89-32.5 204.96-31.43 209.04-30.35 212.11-28.23 215.19-26.1 216.94-22.9 218.69-19.7 218.69-15.45L218.69-15.45Q218.69-11.2 216.94-8.03 215.19-4.85 212.11-2.73 209.04-0.6 204.96 0.45 200.89 1.5 196.19 1.5ZM196.24-11.75L196.24-11.75Q199.34-11.75 200.64-12.95 201.94-14.15 201.94-15.55L201.94-15.55Q201.94-16.2 201.64-16.85 201.34-17.5 200.69-18.05 200.04-18.6 198.94-18.93 197.84-19.25 196.24-19.25L196.24-19.25Q194.64-19.25 193.51-18.93 192.39-18.6 191.71-18.05 191.04-17.5 190.74-16.85 190.44-16.2 190.44-15.5L190.44-15.5Q190.44-14.8 190.74-14.13 191.04-13.45 191.74-12.93 192.44-12.4 193.54-12.08 194.64-11.75 196.24-11.75ZM260.09 0L242.79 0Q242.79-3.9 242.79-7.9 242.79-11.9 242.79-15.8L242.79-15.8Q242.79-17.25 242.06-17.85 241.34-18.45 240.34-18.5 239.34-18.55 238.51-18.25 237.69-17.95 237.49-17.65L237.49-17.65 241.49-30.5Q243.29-31.3 245.34-31.7 247.39-32.1 249.39-32.1L249.39-32.1Q252.19-32.1 254.61-31.2 257.04-30.3 258.56-28.35 260.09-26.4 260.09-23.15L260.09-23.15 260.09 0ZM237.49 0L220.19 0Q220.19-3.2 220.19-6.43 220.19-9.65 220.19-12.88 220.19-16.1 220.19-19.3L220.19-19.3Q220.19-22.25 220.19-25.18 220.19-28.1 220.19-31L220.19-31Q223.09-31 225.96-31 228.84-31 231.74-31 234.64-31 237.49-31L237.49-31Q237.49-29.2 237.49-27.58 237.49-25.95 237.49-24.33 237.49-22.7 237.49-21.08 237.49-19.45 237.49-17.65L237.49-17.65Q237.49-17 237.49-16.38 237.49-15.75 237.49-15.05L237.49-15.05Q237.49-11.35 237.49-7.45 237.49-3.55 237.49 0L237.49 0ZM289.33 0L272.03 0Q272.03-4.65 272.03-9.25 272.03-13.85 272.03-18.48 272.03-23.1 272.03-27.7L272.03-27.7Q272.03-30.2 272.03-32.63 272.03-35.05 272.03-37.5L272.03-37.5 289.33-37.5Q289.33-35.95 289.33-33.88 289.33-31.8 289.33-29.55 289.33-27.3 289.33-25.2L289.33-25.2Q289.33-22.4 289.33-20.4 289.33-18.4 289.33-18.15L289.33-18.15Q289.33-17.9 289.33-17.03 289.33-16.15 289.33-14.9L289.33-14.9Q289.33-13.25 289.33-11.2 289.33-9.15 289.33-7.03 289.33-4.9 289.33-3.05 289.33-1.2 289.33 0L289.33 0ZM311.93 0L294.63 0Q294.63-1.95 294.63-3.9 294.63-5.85 294.63-7.78 294.63-9.7 294.63-11.65 294.63-13.6 294.63-15.55L294.63-15.55Q294.63-17 293.91-17.65 293.18-18.3 292.18-18.38 291.18-18.45 290.36-18.2 289.53-17.95 289.33-17.65L289.33-17.65 293.33-30.5Q295.13-31.3 297.18-31.7 299.23-32.1 301.23-32.1L301.23-32.1Q304.03-32.1 306.46-31.2 308.88-30.3 310.41-28.35 311.93-26.4 311.93-23.15L311.93-23.15Q311.93-19.3 311.93-15.43 311.93-11.55 311.93-7.7 311.93-3.85 311.93 0L311.93 0ZM336.48-31L353.78-31Q353.78-27.65 353.78-24.25 353.78-20.85 353.78-17.45L353.78-17.45Q353.78-14.55 353.78-11.63 353.78-8.7 353.78-5.8 353.78-2.9 353.78 0L353.78 0 336.48 0Q336.48-2.1 336.48-4.25 336.48-6.4 336.48-8.58 336.48-10.75 336.48-12.8L336.48-12.8Q336.48-17.45 336.48-21.93 336.48-26.4 336.48-31L336.48-31ZM313.88-31L331.18-31Q331.18-28.35 331.18-25.68 331.18-23 331.18-20.35 331.18-17.7 331.18-15L331.18-15Q331.18-13.9 331.55-13.23 331.93-12.55 332.55-12.28 333.18-12 333.88-12L333.88-12Q334.58-12 335.3-12.25 336.03-12.5 336.48-12.85L336.48-12.85 332.48-0.5Q331.08 0.2 329.05 0.65 327.03 1.1 324.83 1.1L324.83 1.1Q322.83 1.1 320.88 0.63 318.93 0.15 317.35-0.95 315.78-2.05 314.83-3.85 313.88-5.65 313.88-8.35L313.88-8.35Q313.88-11.95 313.88-15.55 313.88-19.15 313.88-22.75L313.88-22.75Q313.88-24.8 313.88-26.88 313.88-28.95 313.88-31L313.88-31ZM355.78-37.5L355.78-37.5 373.08-37.5Q373.08-35.5 373.08-32.58 373.08-29.65 373.08-26.48 373.08-23.3 373.08-20.38 373.08-17.45 373.08-15.45L373.08-15.45Q373.08-14.5 373.58-13.8 374.08-13.1 374.93-12.65 375.78-12.2 376.85-11.98 377.93-11.75 379.03-11.75L379.03-11.75Q381.98-11.75 383.38-12.9 384.78-14.05 384.78-15.45L384.78-15.45Q384.78-16.5 384.15-17.35 383.53-18.2 382.25-18.73 380.98-19.25 379.03-19.25L379.03-19.25Q376.93-19.25 375.3-18.5 373.68-17.75 373.13-16.05L373.13-16.05 377.08-31Q378.73-31.4 380.35-31.58 381.98-31.75 383.53-31.75L383.53-31.75Q387.38-31.75 390.78-30.68 394.18-29.6 396.75-27.5 399.33-25.4 400.8-22.4 402.28-19.4 402.28-15.55L402.28-15.55Q402.28-11.85 400.8-8.85 399.33-5.85 396.8-3.7 394.28-1.55 391.13-0.4 387.98 0.75 384.58 0.75L384.58 0.75Q383.13 0.75 381.6 0.55 380.08 0.35 378.58-0.1 377.08-0.55 375.7-1.35 374.33-2.15 373.18-3.35L373.18-3.35Q373.13-3.4 373.1-3.38 373.08-3.35 373.08-3.3L373.08-3.3 373.08 0 355.78 0Q355.78-3.4 355.78-6.78 355.78-10.15 355.78-13.53 355.78-16.9 355.78-20.28 355.78-23.65 355.78-27.05L355.78-27.05Q355.78-29.65 355.78-32.27 355.78-34.9 355.78-37.5Z" opacity="1" transform="matrix(1,0,0,1,0,0)" fill="#ffffff" class="wordmark-text-0" data-fill-palette-color="primary" id="text-0"></path></svg></g></svg></g></svg></g></svg></g><g></g></svg></g><defs></defs></svg><rect width="395.52" height="39.802609019754" fill="none" stroke="none" visibility="hidden"></rect></g></svg></g></svg>